# xmcd
#
# Track frame offsets:
#	150
#	13548
#	24251
#	39420
#	52549
#	62727
#	81301
#	98448
#	109631
#	128203
#	140810
#	148716
#	162857
#	174143
#	189171
#	200958
#	213672
#	230163
#
# Disc length: 3227 seconds
#
# Revision: 2
# Processed by: cddbd v1.5.2PL0 Copyright (c) Steve Scherf et al.
# Submitted via: audiograbber 1.83.01
#
DISCID=f00c9912
DTITLE=Various Artist - Hollandse Country Successen
DYEAR=2003
DGENRE=Country
TTITLE0=Major Dundee Band - The Longer The Distance
TTITLE1=Sommerset - Another Lonely Night
TTITLE2=Ruud Hermans - She Don't Know
TTITLE3=Jimmy Lawton and Irene Masseurs - Somewhere Between
TTITLE4=Ben Steneker - I Used To Love You
TTITLE5=Ruud Hermans and Jony De Boer - Up Where We Belong
TTITLE6=Early Bird - Rolling At The End Of The Line
TTITLE7=Sommerset - Willingly
TTITLE8=Jimmy Lawton - I Don't Want To Talk About It
TTITLE9=Tulsa - Don't It Make My Brown Eyes Blue
TTITLE10=Major Dundee Band - Sweet Jennies House
TTITLE11=Ben Steneker and Aurora - If I Needed You
TTITLE12=Sommerset - There Goes My Everything
TTITLE13=Ruud Hermans and Nathali Shelar - Two Of A Kind
TTITLE14=Ben Steneker - Judy
TTITLE15=Tulsa - Me And You And A Dog Named Boo
TTITLE16=Early Bird - Blue Ridge Mountain Boy
TTITLE17=Major Dundee Band - I Bought Me A Fiddle Today
EXTD=
EXTT0=
EXTT1=
EXTT2=
EXTT3=
EXTT4=
EXTT5=
EXTT6=
EXTT7=
EXTT8=
EXTT9=
EXTT10=
EXTT11=
EXTT12=
EXTT13=
EXTT14=
EXTT15=
EXTT16=
EXTT17=
PLAYORDER=
